<?xml version="1.0" encoding="UTF-8" standalone="no"?><svg xmlns="http://www.w3.org/2000/svg" xmlns:xlink="http://www.w3.org/1999/xlink" contentStyleType="text/css" height="660px" preserveAspectRatio="none" style="width:1230px;height:660px;background:#FFFFFF;" version="1.1" viewBox="0 0 1230 660" width="1230px" zoomAndPan="magnify"><defs/><g><!--MD5=[86684dbb1eafa87eadcd021ec15db661]
class UserEvent--><g id="elem_UserEvent"><rect codeLine="3" fill="#F1F1F1" height="64.2969" id="UserEvent" rx="2.5" ry="2.5" style="stroke:#181818;stroke-width:0.5;" width="103" x="7" y="56"/><ellipse cx="22" cy="72" fill="#A9DCDF" rx="11" ry="11" style="stroke:#181818;stroke-width:1.0;"/><path d="M22.1094,67.3438 L20.9531,72.4219 L23.2813,72.4219 L22.1094,67.3438 Z M20.625,65.1094 L23.6094,65.1094 L26.9688,77.5 L24.5156,77.5 L23.75,74.4375 L20.4688,74.4375 L19.7188,77.5 L17.2813,77.5 L20.625,65.1094 Z " fill="#000000"/><text fill="#000000" font-family="sans-serif" font-size="14" font-style="italic" lengthAdjust="spacing" textLength="71" x="36" y="76.8467">UserEvent</text><line style="stroke:#181818;stroke-width:0.5;" x1="8" x2="109" y1="88" y2="88"/><ellipse cx="18" cy="99" fill="none" rx="3" ry="3" style="stroke:#038048;stroke-width:1.0;"/><text fill="#000000" font-family="sans-serif" font-size="14" lengthAdjust="spacing" textLength="39" x="27" y="104.9951">frame</text><line style="stroke:#181818;stroke-width:0.5;" x1="8" x2="109" y1="112.2969" y2="112.2969"/></g><!--MD5=[678ba86161b65c93147b2a3a8cf02be2]
class Frame--><g id="elem_Frame"><rect codeLine="7" fill="#F1F1F1" height="113.1875" id="Frame" rx="2.5" ry="2.5" style="stroke:#181818;stroke-width:0.5;" width="153" x="145" y="31.5"/><ellipse cx="195.75" cy="47.5" fill="#A9DCDF" rx="11" ry="11" style="stroke:#181818;stroke-width:1.0;"/><path d="M195.8594,42.8438 L194.7031,47.9219 L197.0313,47.9219 L195.8594,42.8438 Z M194.375,40.6094 L197.3594,40.6094 L200.7188,53 L198.2656,53 L197.5,49.9375 L194.2188,49.9375 L193.4688,53 L191.0313,53 L194.375,40.6094 Z " fill="#000000"/><text fill="#000000" font-family="sans-serif" font-size="14" font-style="italic" lengthAdjust="spacing" textLength="43" x="216.25" y="52.3467">Frame</text><line style="stroke:#181818;stroke-width:0.5;" x1="146" x2="297" y1="63.5" y2="63.5"/><text fill="#000000" font-family="sans-serif" font-size="14" lengthAdjust="spacing" textLength="37" x="151" y="80.4951">width</text><text fill="#000000" font-family="sans-serif" font-size="14" lengthAdjust="spacing" textLength="44" x="151" y="96.792">height</text><line style="stroke:#181818;stroke-width:0.5;" x1="146" x2="297" y1="104.0938" y2="104.0938"/><text fill="#000000" font-family="sans-serif" font-size="14" lengthAdjust="spacing" textLength="59" x="151" y="121.0889">update()</text><text fill="#000000" font-family="sans-serif" font-size="14" lengthAdjust="spacing" textLength="141" x="151" y="137.3857">handle_user_event()</text></g><!--MD5=[fa327d93d991a7745479e347d99fa935]
class MainFrame--><g id="elem_MainFrame"><rect codeLine="13" fill="#F1F1F1" height="129.4844" id="MainFrame" rx="2.5" ry="2.5" style="stroke:#181818;stroke-width:0.5;" width="161" x="43" y="499.5"/><ellipse cx="82.3" cy="515.5" fill="#ADD1B2" rx="11" ry="11" style="stroke:#181818;stroke-width:1.0;"/><path d="M85.2688,521.1406 Q84.6906,521.4375 84.05,521.5781 Q83.4094,521.7344 82.7063,521.7344 Q80.2063,521.7344 78.8781,520.0938 Q77.5656,518.4375 77.5656,515.3125 Q77.5656,512.1875 78.8781,510.5313 Q80.2063,508.875 82.7063,508.875 Q83.4094,508.875 84.05,509.0313 Q84.7063,509.1875 85.2688,509.4844 L85.2688,512.2031 Q84.6438,511.625 84.05,511.3594 Q83.4563,511.0781 82.8313,511.0781 Q81.4875,511.0781 80.8,512.1563 Q80.1125,513.2188 80.1125,515.3125 Q80.1125,517.4063 80.8,518.4844 Q81.4875,519.5469 82.8313,519.5469 Q83.4563,519.5469 84.05,519.2813 Q84.6438,519 85.2688,518.4219 L85.2688,521.1406 Z " fill="#000000"/><text fill="#000000" font-family="sans-serif" font-size="14" lengthAdjust="spacing" textLength="75" x="101.7" y="520.3467">MainFrame</text><line style="stroke:#181818;stroke-width:0.5;" x1="44" x2="203" y1="531.5" y2="531.5"/><text fill="#000000" font-family="sans-serif" font-size="14" lengthAdjust="spacing" textLength="37" x="49" y="548.4951">width</text><text fill="#000000" font-family="sans-serif" font-size="14" lengthAdjust="spacing" textLength="44" x="49" y="564.792">height</text><text fill="#000000" font-family="sans-serif" font-size="14" lengthAdjust="spacing" textLength="66" x="49" y="581.0889">framerate</text><line style="stroke:#181818;stroke-width:0.5;" x1="44" x2="203" y1="588.3906" y2="588.3906"/><text fill="#000000" font-family="sans-serif" font-size="14" lengthAdjust="spacing" textLength="59" x="49" y="605.3857">update()</text><text fill="#000000" font-family="sans-serif" font-size="14" lengthAdjust="spacing" textLength="149" x="49" y="621.6826">handle_user_events()</text></g><!--MD5=[4c58952ae96bf126ee1def7523fb378b]
class PlotFrame--><g id="elem_PlotFrame"><rect codeLine="21" fill="#F1F1F1" height="113.1875" id="PlotFrame" rx="2.5" ry="2.5" style="stroke:#181818;stroke-width:0.5;" width="161" x="267" y="507.5"/><ellipse cx="309" cy="523.5" fill="#ADD1B2" rx="11" ry="11" style="stroke:#181818;stroke-width:1.0;"/><path d="M311.9688,529.1406 Q311.3906,529.4375 310.75,529.5781 Q310.1094,529.7344 309.4063,529.7344 Q306.9063,529.7344 305.5781,528.0938 Q304.2656,526.4375 304.2656,523.3125 Q304.2656,520.1875 305.5781,518.5313 Q306.9063,516.875 309.4063,516.875 Q310.1094,516.875 310.75,517.0313 Q311.4063,517.1875 311.9688,517.4844 L311.9688,520.2031 Q311.3438,519.625 310.75,519.3594 Q310.1563,519.0781 309.5313,519.0781 Q308.1875,519.0781 307.5,520.1563 Q306.8125,521.2188 306.8125,523.3125 Q306.8125,525.4063 307.5,526.4844 Q308.1875,527.5469 309.5313,527.5469 Q310.1563,527.5469 310.75,527.2813 Q311.3438,527 311.9688,526.4219 L311.9688,529.1406 Z " fill="#000000"/><text fill="#000000" font-family="sans-serif" font-size="14" lengthAdjust="spacing" textLength="69" x="329" y="528.3467">PlotFrame</text><line style="stroke:#181818;stroke-width:0.5;" x1="268" x2="427" y1="539.5" y2="539.5"/><text fill="#000000" font-family="sans-serif" font-size="14" lengthAdjust="spacing" textLength="37" x="273" y="556.4951">widht</text><text fill="#000000" font-family="sans-serif" font-size="14" lengthAdjust="spacing" textLength="44" x="273" y="572.792">height</text><line style="stroke:#181818;stroke-width:0.5;" x1="268" x2="427" y1="580.0938" y2="580.0938"/><text fill="#000000" font-family="sans-serif" font-size="14" lengthAdjust="spacing" textLength="59" x="273" y="597.0889">update()</text><text fill="#000000" font-family="sans-serif" font-size="14" lengthAdjust="spacing" textLength="149" x="273" y="613.3857">handle_user_events()</text></g><!--MD5=[00f098caa368145b9e25fdd2189dd694]
class InteractiveConsoleFrame--><g id="elem_InteractiveConsoleFrame"><rect codeLine="28" fill="#F1F1F1" height="162.0781" id="InteractiveConsoleFrame" rx="2.5" ry="2.5" style="stroke:#181818;stroke-width:0.5;" width="203" x="120" y="241"/><ellipse cx="135" cy="257" fill="#ADD1B2" rx="11" ry="11" style="stroke:#181818;stroke-width:1.0;"/><path d="M137.9688,262.6406 Q137.3906,262.9375 136.75,263.0781 Q136.1094,263.2344 135.4063,263.2344 Q132.9063,263.2344 131.5781,261.5938 Q130.2656,259.9375 130.2656,256.8125 Q130.2656,253.6875 131.5781,252.0313 Q132.9063,250.375 135.4063,250.375 Q136.1094,250.375 136.75,250.5313 Q137.4063,250.6875 137.9688,250.9844 L137.9688,253.7031 Q137.3438,253.125 136.75,252.8594 Q136.1563,252.5781 135.5313,252.5781 Q134.1875,252.5781 133.5,253.6563 Q132.8125,254.7188 132.8125,256.8125 Q132.8125,258.9063 133.5,259.9844 Q134.1875,261.0469 135.5313,261.0469 Q136.1563,261.0469 136.75,260.7813 Q137.3438,260.5 137.9688,259.9219 L137.9688,262.6406 Z " fill="#000000"/><text fill="#000000" font-family="sans-serif" font-size="14" lengthAdjust="spacing" textLength="171" x="149" y="261.8467">InteractiveConsoleFrame</text><line style="stroke:#181818;stroke-width:0.5;" x1="121" x2="322" y1="273" y2="273"/><text fill="#000000" font-family="sans-serif" font-size="14" lengthAdjust="spacing" textLength="37" x="126" y="289.9951">width</text><text fill="#000000" font-family="sans-serif" font-size="14" lengthAdjust="spacing" textLength="44" x="126" y="306.292">height</text><text fill="#000000" font-family="sans-serif" font-size="14" lengthAdjust="spacing" textLength="79" x="126" y="322.5889">main_frame</text><text fill="#000000" font-family="sans-serif" font-size="14" lengthAdjust="spacing" textLength="72" x="126" y="338.8857">plot_frame</text><line style="stroke:#181818;stroke-width:0.5;" x1="121" x2="322" y1="346.1875" y2="346.1875"/><text fill="#000000" font-family="sans-serif" font-size="14" lengthAdjust="spacing" textLength="59" x="126" y="363.1826">update()</text><text fill="#000000" font-family="sans-serif" font-size="14" lengthAdjust="spacing" textLength="149" x="126" y="379.4795">handle_user_events()</text><text fill="#000000" font-family="sans-serif" font-size="14" lengthAdjust="spacing" textLength="146" x="126" y="395.7764">export_user_events()</text></g><!--MD5=[be996cdb8e6bf2fc7cb89c555f2cd144]
class Entity--><g id="elem_Entity"><rect codeLine="46" fill="#F1F1F1" height="162.0781" id="Entity" rx="2.5" ry="2.5" style="stroke:#181818;stroke-width:0.5;" width="81" x="632" y="7"/><ellipse cx="651.5" cy="23" fill="#B4A7E5" rx="11" ry="11" style="stroke:#181818;stroke-width:1.0;"/><path d="M647.4219,18.7656 L647.4219,16.6094 L654.8125,16.6094 L654.8125,18.7656 L652.3438,18.7656 L652.3438,26.8438 L654.8125,26.8438 L654.8125,29 L647.4219,29 L647.4219,26.8438 L649.8906,26.8438 L649.8906,18.7656 L647.4219,18.7656 Z " fill="#000000"/><text fill="#000000" font-family="sans-serif" font-size="14" font-style="italic" lengthAdjust="spacing" textLength="39" x="666.5" y="27.8467">Entity</text><line style="stroke:#181818;stroke-width:0.5;" x1="633" x2="712" y1="39" y2="39"/><text fill="#000000" font-family="sans-serif" font-size="14" lengthAdjust="spacing" textLength="12" x="638" y="55.9951">id</text><text fill="#000000" font-family="sans-serif" font-size="14" lengthAdjust="spacing" textLength="22" x="638" y="72.292">x, y</text><text fill="#000000" font-family="sans-serif" font-size="14" lengthAdjust="spacing" textLength="36" x="638" y="88.5889">vx, vy</text><text fill="#000000" font-family="sans-serif" font-size="14" lengthAdjust="spacing" textLength="38" x="638" y="104.8857">ax, ay</text><text fill="#000000" font-family="sans-serif" font-size="14" lengthAdjust="spacing" textLength="45" x="638" y="121.1826">satiety</text><text fill="#000000" font-family="sans-serif" font-size="14" lengthAdjust="spacing" textLength="69" x="638" y="137.4795">saturation</text><line style="stroke:#181818;stroke-width:0.5;" x1="633" x2="712" y1="144.7813" y2="144.7813"/><text fill="#000000" font-family="sans-serif" font-size="14" lengthAdjust="spacing" textLength="48" x="638" y="161.7764">move()</text></g><!--MD5=[d88b14332854bf71f1d1a0f535121fd4]
class Pike--><g id="elem_Pike"><rect codeLine="55" fill="#F1F1F1" height="178.375" id="Pike" rx="2.5" ry="2.5" style="stroke:#181818;stroke-width:0.5;" width="110" x="617.5" y="233"/><ellipse cx="655" cy="249" fill="#A9DCDF" rx="11" ry="11" style="stroke:#181818;stroke-width:1.0;"/><path d="M655.1094,244.3438 L653.9531,249.4219 L656.2813,249.4219 L655.1094,244.3438 Z M653.625,242.1094 L656.6094,242.1094 L659.9688,254.5 L657.5156,254.5 L656.75,251.4375 L653.4688,251.4375 L652.7188,254.5 L650.2813,254.5 L653.625,242.1094 Z " fill="#000000"/><text fill="#000000" font-family="sans-serif" font-size="14" font-style="italic" lengthAdjust="spacing" textLength="28" x="674" y="253.8467">Pike</text><line style="stroke:#181818;stroke-width:0.5;" x1="618.5" x2="726.5" y1="265" y2="265"/><text fill="#000000" font-family="sans-serif" font-size="14" lengthAdjust="spacing" textLength="12" x="623.5" y="281.9951">id</text><text fill="#000000" font-family="sans-serif" font-size="14" lengthAdjust="spacing" textLength="22" x="623.5" y="298.292">x, y</text><text fill="#000000" font-family="sans-serif" font-size="14" lengthAdjust="spacing" textLength="36" x="623.5" y="314.5889">vx, vy</text><text fill="#000000" font-family="sans-serif" font-size="14" lengthAdjust="spacing" textLength="38" x="623.5" y="330.8857">ax, ay</text><text fill="#000000" font-family="sans-serif" font-size="14" lengthAdjust="spacing" textLength="45" x="623.5" y="347.1826">satiety</text><text fill="#000000" font-family="sans-serif" font-size="14" lengthAdjust="spacing" textLength="69" x="623.5" y="363.4795">saturation</text><line style="stroke:#181818;stroke-width:0.5;" x1="618.5" x2="726.5" y1="370.7813" y2="370.7813"/><text fill="#000000" font-family="sans-serif" font-size="14" lengthAdjust="spacing" textLength="48" x="623.5" y="387.7764">move()</text><text fill="#000000" font-family="sans-serif" font-size="14" lengthAdjust="spacing" textLength="98" x="623.5" y="404.0732">activity() : Pike</text></g><!--MD5=[43b25e6c293c59bad1f47296eb5fd819]
class Perch--><g id="elem_Perch"><rect codeLine="65" fill="#F1F1F1" height="178.375" id="Perch" rx="2.5" ry="2.5" style="stroke:#181818;stroke-width:0.5;" width="121" x="847" y="233"/><ellipse cx="884.5" cy="249" fill="#A9DCDF" rx="11" ry="11" style="stroke:#181818;stroke-width:1.0;"/><path d="M884.6094,244.3438 L883.4531,249.4219 L885.7813,249.4219 L884.6094,244.3438 Z M883.125,242.1094 L886.1094,242.1094 L889.4688,254.5 L887.0156,254.5 L886.25,251.4375 L882.9688,251.4375 L882.2188,254.5 L879.7813,254.5 L883.125,242.1094 Z " fill="#000000"/><text fill="#000000" font-family="sans-serif" font-size="14" font-style="italic" lengthAdjust="spacing" textLength="39" x="903.5" y="253.8467">Perch</text><line style="stroke:#181818;stroke-width:0.5;" x1="848" x2="967" y1="265" y2="265"/><text fill="#000000" font-family="sans-serif" font-size="14" lengthAdjust="spacing" textLength="12" x="853" y="281.9951">id</text><text fill="#000000" font-family="sans-serif" font-size="14" lengthAdjust="spacing" textLength="22" x="853" y="298.292">x, y</text><text fill="#000000" font-family="sans-serif" font-size="14" lengthAdjust="spacing" textLength="36" x="853" y="314.5889">vx, vy</text><text fill="#000000" font-family="sans-serif" font-size="14" lengthAdjust="spacing" textLength="38" x="853" y="330.8857">ax, ay</text><text fill="#000000" font-family="sans-serif" font-size="14" lengthAdjust="spacing" textLength="45" x="853" y="347.1826">satiety</text><text fill="#000000" font-family="sans-serif" font-size="14" lengthAdjust="spacing" textLength="69" x="853" y="363.4795">saturation</text><line style="stroke:#181818;stroke-width:0.5;" x1="848" x2="967" y1="370.7813" y2="370.7813"/><text fill="#000000" font-family="sans-serif" font-size="14" lengthAdjust="spacing" textLength="48" x="853" y="387.7764">move()</text><text fill="#000000" font-family="sans-serif" font-size="14" lengthAdjust="spacing" textLength="109" x="853" y="404.0732">activity() : Perch</text></g><!--MD5=[d94aa291e5a40809c2c93799eb731100]
class RestingPike--><g id="elem_RestingPike"><rect codeLine="75" fill="#F1F1F1" height="178.375" id="RestingPike" rx="2.5" ry="2.5" style="stroke:#181818;stroke-width:0.5;" width="114" x="615.5" y="475"/><ellipse cx="630.5" cy="491" fill="#ADD1B2" rx="11" ry="11" style="stroke:#181818;stroke-width:1.0;"/><path d="M633.4688,496.6406 Q632.8906,496.9375 632.25,497.0781 Q631.6094,497.2344 630.9063,497.2344 Q628.4063,497.2344 627.0781,495.5938 Q625.7656,493.9375 625.7656,490.8125 Q625.7656,487.6875 627.0781,486.0313 Q628.4063,484.375 630.9063,484.375 Q631.6094,484.375 632.25,484.5313 Q632.9063,484.6875 633.4688,484.9844 L633.4688,487.7031 Q632.8438,487.125 632.25,486.8594 Q631.6563,486.5781 631.0313,486.5781 Q629.6875,486.5781 629,487.6563 Q628.3125,488.7188 628.3125,490.8125 Q628.3125,492.9063 629,493.9844 Q629.6875,495.0469 631.0313,495.0469 Q631.6563,495.0469 632.25,494.7813 Q632.8438,494.5 633.4688,493.9219 L633.4688,496.6406 Z " fill="#000000"/><text fill="#000000" font-family="sans-serif" font-size="14" lengthAdjust="spacing" textLength="82" x="644.5" y="495.8467">RestingPike</text><line style="stroke:#181818;stroke-width:0.5;" x1="616.5" x2="728.5" y1="507" y2="507"/><text fill="#000000" font-family="sans-serif" font-size="14" lengthAdjust="spacing" textLength="12" x="621.5" y="523.9951">id</text><text fill="#000000" font-family="sans-serif" font-size="14" lengthAdjust="spacing" textLength="22" x="621.5" y="540.292">x, y</text><text fill="#000000" font-family="sans-serif" font-size="14" lengthAdjust="spacing" textLength="36" x="621.5" y="556.5889">vx, vy</text><text fill="#000000" font-family="sans-serif" font-size="14" lengthAdjust="spacing" textLength="38" x="621.5" y="572.8857">ax, ay</text><text fill="#000000" font-family="sans-serif" font-size="14" lengthAdjust="spacing" textLength="45" x="621.5" y="589.1826">satiety</text><text fill="#000000" font-family="sans-serif" font-size="14" lengthAdjust="spacing" textLength="69" x="621.5" y="605.4795">saturation</text><line style="stroke:#181818;stroke-width:0.5;" x1="616.5" x2="728.5" y1="612.7813" y2="612.7813"/><text fill="#000000" font-family="sans-serif" font-size="14" lengthAdjust="spacing" textLength="48" x="621.5" y="629.7764">move()</text><text fill="#000000" font-family="sans-serif" font-size="14" lengthAdjust="spacing" textLength="98" x="621.5" y="646.0732">activity() : Pike</text></g><!--MD5=[87b2c4630ae3c97083853aa54e890247]
class RestingPerch--><g id="elem_RestingPerch"><rect codeLine="85" fill="#F1F1F1" height="178.375" id="RestingPerch" rx="2.5" ry="2.5" style="stroke:#181818;stroke-width:0.5;" width="125" x="765" y="475"/><ellipse cx="780" cy="491" fill="#ADD1B2" rx="11" ry="11" style="stroke:#181818;stroke-width:1.0;"/><path d="M782.9688,496.6406 Q782.3906,496.9375 781.75,497.0781 Q781.1094,497.2344 780.4063,497.2344 Q777.9063,497.2344 776.5781,495.5938 Q775.2656,493.9375 775.2656,490.8125 Q775.2656,487.6875 776.5781,486.0313 Q777.9063,484.375 780.4063,484.375 Q781.1094,484.375 781.75,484.5313 Q782.4063,484.6875 782.9688,484.9844 L782.9688,487.7031 Q782.3438,487.125 781.75,486.8594 Q781.1563,486.5781 780.5313,486.5781 Q779.1875,486.5781 778.5,487.6563 Q777.8125,488.7188 777.8125,490.8125 Q777.8125,492.9063 778.5,493.9844 Q779.1875,495.0469 780.5313,495.0469 Q781.1563,495.0469 781.75,494.7813 Q782.3438,494.5 782.9688,493.9219 L782.9688,496.6406 Z " fill="#000000"/><text fill="#000000" font-family="sans-serif" font-size="14" lengthAdjust="spacing" textLength="93" x="794" y="495.8467">RestingPerch</text><line style="stroke:#181818;stroke-width:0.5;" x1="766" x2="889" y1="507" y2="507"/><text fill="#000000" font-family="sans-serif" font-size="14" lengthAdjust="spacing" textLength="12" x="771" y="523.9951">id</text><text fill="#000000" font-family="sans-serif" font-size="14" lengthAdjust="spacing" textLength="22" x="771" y="540.292">x, y</text><text fill="#000000" font-family="sans-serif" font-size="14" lengthAdjust="spacing" textLength="36" x="771" y="556.5889">vx, vy</text><text fill="#000000" font-family="sans-serif" font-size="14" lengthAdjust="spacing" textLength="38" x="771" y="572.8857">ax, ay</text><text fill="#000000" font-family="sans-serif" font-size="14" lengthAdjust="spacing" textLength="45" x="771" y="589.1826">satiety</text><text fill="#000000" font-family="sans-serif" font-size="14" lengthAdjust="spacing" textLength="69" x="771" y="605.4795">saturation</text><line style="stroke:#181818;stroke-width:0.5;" x1="766" x2="889" y1="612.7813" y2="612.7813"/><text fill="#000000" font-family="sans-serif" font-size="14" lengthAdjust="spacing" textLength="48" x="771" y="629.7764">move()</text><text fill="#000000" font-family="sans-serif" font-size="14" lengthAdjust="spacing" textLength="109" x="771" y="646.0732">activity() : Perch</text></g><!--MD5=[6b292e8d09ebf22d2c0afd4910020296]
class ChasingPike--><g id="elem_ChasingPike"><rect codeLine="95" fill="#F1F1F1" height="178.375" id="ChasingPike" rx="2.5" ry="2.5" style="stroke:#181818;stroke-width:0.5;" width="117" x="463" y="475"/><ellipse cx="478" cy="491" fill="#ADD1B2" rx="11" ry="11" style="stroke:#181818;stroke-width:1.0;"/><path d="M480.9688,496.6406 Q480.3906,496.9375 479.75,497.0781 Q479.1094,497.2344 478.4063,497.2344 Q475.9063,497.2344 474.5781,495.5938 Q473.2656,493.9375 473.2656,490.8125 Q473.2656,487.6875 474.5781,486.0313 Q475.9063,484.375 478.4063,484.375 Q479.1094,484.375 479.75,484.5313 Q480.4063,484.6875 480.9688,484.9844 L480.9688,487.7031 Q480.3438,487.125 479.75,486.8594 Q479.1563,486.5781 478.5313,486.5781 Q477.1875,486.5781 476.5,487.6563 Q475.8125,488.7188 475.8125,490.8125 Q475.8125,492.9063 476.5,493.9844 Q477.1875,495.0469 478.5313,495.0469 Q479.1563,495.0469 479.75,494.7813 Q480.3438,494.5 480.9688,493.9219 L480.9688,496.6406 Z " fill="#000000"/><text fill="#000000" font-family="sans-serif" font-size="14" lengthAdjust="spacing" textLength="85" x="492" y="495.8467">ChasingPike</text><line style="stroke:#181818;stroke-width:0.5;" x1="464" x2="579" y1="507" y2="507"/><text fill="#000000" font-family="sans-serif" font-size="14" lengthAdjust="spacing" textLength="12" x="469" y="523.9951">id</text><text fill="#000000" font-family="sans-serif" font-size="14" lengthAdjust="spacing" textLength="22" x="469" y="540.292">x, y</text><text fill="#000000" font-family="sans-serif" font-size="14" lengthAdjust="spacing" textLength="36" x="469" y="556.5889">vx, vy</text><text fill="#000000" font-family="sans-serif" font-size="14" lengthAdjust="spacing" textLength="38" x="469" y="572.8857">ax, ay</text><text fill="#000000" font-family="sans-serif" font-size="14" lengthAdjust="spacing" textLength="45" x="469" y="589.1826">satiety</text><text fill="#000000" font-family="sans-serif" font-size="14" lengthAdjust="spacing" textLength="69" x="469" y="605.4795">saturation</text><line style="stroke:#181818;stroke-width:0.5;" x1="464" x2="579" y1="612.7813" y2="612.7813"/><text fill="#000000" font-family="sans-serif" font-size="14" lengthAdjust="spacing" textLength="48" x="469" y="629.7764">move()</text><text fill="#000000" font-family="sans-serif" font-size="14" lengthAdjust="spacing" textLength="98" x="469" y="646.0732">activity() : Pike</text></g><!--MD5=[a864726edd76902dc4011e1474dc6d5b]
class EscapingPerch--><g id="elem_EscapingPerch"><rect codeLine="105" fill="#F1F1F1" height="178.375" id="EscapingPerch" rx="2.5" ry="2.5" style="stroke:#181818;stroke-width:0.5;" width="135" x="925" y="475"/><ellipse cx="940" cy="491" fill="#ADD1B2" rx="11" ry="11" style="stroke:#181818;stroke-width:1.0;"/><path d="M942.9688,496.6406 Q942.3906,496.9375 941.75,497.0781 Q941.1094,497.2344 940.4063,497.2344 Q937.9063,497.2344 936.5781,495.5938 Q935.2656,493.9375 935.2656,490.8125 Q935.2656,487.6875 936.5781,486.0313 Q937.9063,484.375 940.4063,484.375 Q941.1094,484.375 941.75,484.5313 Q942.4063,484.6875 942.9688,484.9844 L942.9688,487.7031 Q942.3438,487.125 941.75,486.8594 Q941.1563,486.5781 940.5313,486.5781 Q939.1875,486.5781 938.5,487.6563 Q937.8125,488.7188 937.8125,490.8125 Q937.8125,492.9063 938.5,493.9844 Q939.1875,495.0469 940.5313,495.0469 Q941.1563,495.0469 941.75,494.7813 Q942.3438,494.5 942.9688,493.9219 L942.9688,496.6406 Z " fill="#000000"/><text fill="#000000" font-family="sans-serif" font-size="14" lengthAdjust="spacing" textLength="103" x="954" y="495.8467">EscapingPerch</text><line style="stroke:#181818;stroke-width:0.5;" x1="926" x2="1059" y1="507" y2="507"/><text fill="#000000" font-family="sans-serif" font-size="14" lengthAdjust="spacing" textLength="12" x="931" y="523.9951">id</text><text fill="#000000" font-family="sans-serif" font-size="14" lengthAdjust="spacing" textLength="22" x="931" y="540.292">x, y</text><text fill="#000000" font-family="sans-serif" font-size="14" lengthAdjust="spacing" textLength="36" x="931" y="556.5889">vx, vy</text><text fill="#000000" font-family="sans-serif" font-size="14" lengthAdjust="spacing" textLength="38" x="931" y="572.8857">ax, ay</text><text fill="#000000" font-family="sans-serif" font-size="14" lengthAdjust="spacing" textLength="45" x="931" y="589.1826">satiety</text><text fill="#000000" font-family="sans-serif" font-size="14" lengthAdjust="spacing" textLength="69" x="931" y="605.4795">saturation</text><line style="stroke:#181818;stroke-width:0.5;" x1="926" x2="1059" y1="612.7813" y2="612.7813"/><text fill="#000000" font-family="sans-serif" font-size="14" lengthAdjust="spacing" textLength="48" x="931" y="629.7764">move()</text><text fill="#000000" font-family="sans-serif" font-size="14" lengthAdjust="spacing" textLength="109" x="931" y="646.0732">activity() : Perch</text></g><!--MD5=[5faa7bd60c2c6074d52f9f499ea05f15]
class ChasingPerch--><g id="elem_ChasingPerch"><rect codeLine="115" fill="#F1F1F1" height="178.375" id="ChasingPerch" rx="2.5" ry="2.5" style="stroke:#181818;stroke-width:0.5;" width="128" x="1095.5" y="475"/><ellipse cx="1110.5" cy="491" fill="#ADD1B2" rx="11" ry="11" style="stroke:#181818;stroke-width:1.0;"/><path d="M1113.4688,496.6406 Q1112.8906,496.9375 1112.25,497.0781 Q1111.6094,497.2344 1110.9063,497.2344 Q1108.4063,497.2344 1107.0781,495.5938 Q1105.7656,493.9375 1105.7656,490.8125 Q1105.7656,487.6875 1107.0781,486.0313 Q1108.4063,484.375 1110.9063,484.375 Q1111.6094,484.375 1112.25,484.5313 Q1112.9063,484.6875 1113.4688,484.9844 L1113.4688,487.7031 Q1112.8438,487.125 1112.25,486.8594 Q1111.6563,486.5781 1111.0313,486.5781 Q1109.6875,486.5781 1109,487.6563 Q1108.3125,488.7188 1108.3125,490.8125 Q1108.3125,492.9063 1109,493.9844 Q1109.6875,495.0469 1111.0313,495.0469 Q1111.6563,495.0469 1112.25,494.7813 Q1112.8438,494.5 1113.4688,493.9219 L1113.4688,496.6406 Z " fill="#000000"/><text fill="#000000" font-family="sans-serif" font-size="14" lengthAdjust="spacing" textLength="96" x="1124.5" y="495.8467">ChasingPerch</text><line style="stroke:#181818;stroke-width:0.5;" x1="1096.5" x2="1222.5" y1="507" y2="507"/><text fill="#000000" font-family="sans-serif" font-size="14" lengthAdjust="spacing" textLength="12" x="1101.5" y="523.9951">id</text><text fill="#000000" font-family="sans-serif" font-size="14" lengthAdjust="spacing" textLength="22" x="1101.5" y="540.292">x, y</text><text fill="#000000" font-family="sans-serif" font-size="14" lengthAdjust="spacing" textLength="36" x="1101.5" y="556.5889">vx, vy</text><text fill="#000000" font-family="sans-serif" font-size="14" lengthAdjust="spacing" textLength="38" x="1101.5" y="572.8857">ax, ay</text><text fill="#000000" font-family="sans-serif" font-size="14" lengthAdjust="spacing" textLength="45" x="1101.5" y="589.1826">satiety</text><text fill="#000000" font-family="sans-serif" font-size="14" lengthAdjust="spacing" textLength="69" x="1101.5" y="605.4795">saturation</text><line style="stroke:#181818;stroke-width:0.5;" x1="1096.5" x2="1222.5" y1="612.7813" y2="612.7813"/><text fill="#000000" font-family="sans-serif" font-size="14" lengthAdjust="spacing" textLength="48" x="1101.5" y="629.7764">move()</text><text fill="#000000" font-family="sans-serif" font-size="14" lengthAdjust="spacing" textLength="109" x="1101.5" y="646.0732">activity() : Perch</text></g><!--MD5=[1cfa10e03418658454aff938f04d7cbd]
class PerchFood--><g id="elem_PerchFood"><rect codeLine="125" fill="#F1F1F1" height="145.7813" id="PerchFood" rx="2.5" ry="2.5" style="stroke:#181818;stroke-width:0.5;" width="107" x="1104" y="15"/><ellipse cx="1119" cy="31" fill="#ADD1B2" rx="11" ry="11" style="stroke:#181818;stroke-width:1.0;"/><path d="M1121.9688,36.6406 Q1121.3906,36.9375 1120.75,37.0781 Q1120.1094,37.2344 1119.4063,37.2344 Q1116.9063,37.2344 1115.5781,35.5938 Q1114.2656,33.9375 1114.2656,30.8125 Q1114.2656,27.6875 1115.5781,26.0313 Q1116.9063,24.375 1119.4063,24.375 Q1120.1094,24.375 1120.75,24.5313 Q1121.4063,24.6875 1121.9688,24.9844 L1121.9688,27.7031 Q1121.3438,27.125 1120.75,26.8594 Q1120.1563,26.5781 1119.5313,26.5781 Q1118.1875,26.5781 1117.5,27.6563 Q1116.8125,28.7188 1116.8125,30.8125 Q1116.8125,32.9063 1117.5,33.9844 Q1118.1875,35.0469 1119.5313,35.0469 Q1120.1563,35.0469 1120.75,34.7813 Q1121.3438,34.5 1121.9688,33.9219 L1121.9688,36.6406 Z " fill="#000000"/><text fill="#000000" font-family="sans-serif" font-size="14" lengthAdjust="spacing" textLength="75" x="1133" y="35.8467">PerchFood</text><line style="stroke:#181818;stroke-width:0.5;" x1="1105" x2="1210" y1="47" y2="47"/><text fill="#000000" font-family="sans-serif" font-size="14" lengthAdjust="spacing" textLength="12" x="1110" y="63.9951">id</text><text fill="#000000" font-family="sans-serif" font-size="14" lengthAdjust="spacing" textLength="22" x="1110" y="80.292">x, y</text><text fill="#000000" font-family="sans-serif" font-size="14" lengthAdjust="spacing" textLength="36" x="1110" y="96.5889">vx, vy</text><text fill="#000000" font-family="sans-serif" font-size="14" lengthAdjust="spacing" textLength="38" x="1110" y="112.8857">ax, ay</text><text fill="#000000" font-family="sans-serif" font-size="14" lengthAdjust="spacing" textLength="45" x="1110" y="129.1826">satiety</text><text fill="#000000" font-family="sans-serif" font-size="14" lengthAdjust="spacing" textLength="69" x="1110" y="145.4795">saturation</text><line style="stroke:#181818;stroke-width:0.5;" x1="1105" x2="1210" y1="152.7813" y2="152.7813"/></g><g id="elem_N_activity"><path d="M748.5,52.5 L748.5,123.0313 L1068.5,123.0313 L1068.5,62.5 L1058.5,52.5 L748.5,52.5 " fill="#FEFFDD" style="stroke:#181818;stroke-width:0.5;"/><path d="M1058.5,52.5 L1058.5,62.5 L1068.5,62.5 L1058.5,52.5 " fill="#FEFFDD" style="stroke:#181818;stroke-width:1.0;"/><text fill="#000000" font-family="sans-serif" font-size="13" lengthAdjust="spacing" textLength="259" x="754.5" y="69.5669">Метод activity() возвращает либо self,</text><text fill="#000000" font-family="sans-serif" font-size="13" lengthAdjust="spacing" textLength="277" x="754.5" y="84.6997">если состояние объекта не изменяется,</text><text fill="#000000" font-family="sans-serif" font-size="13" lengthAdjust="spacing" textLength="259" x="754.5" y="99.8325">либо объект одного из подклассов, в</text><text fill="#000000" font-family="sans-serif" font-size="13" lengthAdjust="spacing" textLength="299" x="754.5" y="114.9653">зависимости от результата деятельности.</text></g><!--MD5=[f3aeaa10fb9c32d69648c569f5c5e31d]
reverse link Frame to InteractiveConsoleFrame--><g id="link_Frame_InteractiveConsoleFrame"><path codeLine="39" d="M221.5,164.73 C221.5,189.1 221.5,216.19 221.5,240.87 " fill="none" id="Frame-backto-InteractiveConsoleFrame" style="stroke:#181818;stroke-width:1.0;"/><polygon fill="none" points="214.5,164.57,221.5,144.57,228.5,164.57,214.5,164.57" style="stroke:#181818;stroke-width:1.0;"/></g><!--MD5=[ea3a68e475d1c60526db2c09a84acb6a]
reverse link Frame to MainFrame--><g id="link_Frame_MainFrame"><path codeLine="40" d="M145.09,159.56 C127.76,180.09 111.75,203.83 102.5,229 C69.63,318.43 87.49,430.35 104.58,499.25 " fill="none" id="Frame-backto-MainFrame" style="stroke:#181818;stroke-width:1.0;"/><polygon fill="none" points="139.97,154.78,158.51,144.52,150.42,164.1,139.97,154.78" style="stroke:#181818;stroke-width:1.0;"/></g><!--MD5=[e606a7ecc855de9599308577692e8875]
reverse link Frame to PlotFrame--><g id="link_Frame_PlotFrame"><path codeLine="41" d="M297.55,159.69 C314.88,180.22 330.98,203.93 340.5,229 C375.64,321.59 367.02,439.26 357.38,507.36 " fill="none" id="Frame-backto-PlotFrame" style="stroke:#181818;stroke-width:1.0;"/><polygon fill="none" points="292.22,164.23,284.15,144.64,302.68,154.92,292.22,164.23" style="stroke:#181818;stroke-width:1.0;"/></g><!--MD5=[c100a1b4406223918112d88a8ba8e4ad]
reverse link InteractiveConsoleFrame to MainFrame--><g id="link_InteractiveConsoleFrame_MainFrame"><path codeLine="43" d="M183.73,415.5 C172.32,443.45 160.05,473.5 149.58,499.14 " fill="none" id="InteractiveConsoleFrame-backto-MainFrame" style="stroke:#181818;stroke-width:1.0;"/><polygon fill="#181818" points="188.73,403.25,182.7596,407.294,184.1962,414.3605,190.1666,410.3166,188.73,403.25" style="stroke:#181818;stroke-width:1.0;"/></g><!--MD5=[22d8a6f2443bf993bac3c61cecf6533a]
reverse link InteractiveConsoleFrame to PlotFrame--><g id="link_InteractiveConsoleFrame_PlotFrame"><path codeLine="44" d="M269.82,415.04 C286.18,446.2 303.93,480.02 318.34,507.45 " fill="none" id="InteractiveConsoleFrame-backto-PlotFrame" style="stroke:#181818;stroke-width:1.0;"/><polygon fill="#181818" points="263.63,403.25,262.88,410.422,269.2119,413.8727,269.9619,406.7007,263.63,403.25" style="stroke:#181818;stroke-width:1.0;"/></g><!--MD5=[3ff00c0b0deaa582822fc16af1088f0c]
reverse link Entity to Pike--><g id="link_Entity_Pike"><path codeLine="134" d="M672.5,189.44 C672.5,202.55 672.5,215.92 672.5,228.88 " fill="none" id="Entity-backto-Pike" style="stroke:#181818;stroke-width:1.0;"/><polygon fill="none" points="665.5,189.17,672.5,169.17,679.5,189.17,665.5,189.17" style="stroke:#181818;stroke-width:1.0;"/></g><!--MD5=[dd6bddab0f1da6d54f7804f867fdf4dd]
reverse link Entity to Perch--><g id="link_Entity_Perch"><path codeLine="135" d="M726.07,164.07 C727.54,165.74 729.02,167.39 730.5,169 C763.43,204.75 804.38,240.39 838.59,268.16 " fill="none" id="Entity-backto-Perch" style="stroke:#181818;stroke-width:1.0;"/><polygon fill="none" points="720.44,168.24,713.11,148.36,731.24,159.33,720.44,168.24" style="stroke:#181818;stroke-width:1.0;"/></g><!--MD5=[78e962f70388a47a0124db5f14d2fbae]
reverse link Pike to RestingPike--><g id="link_Pike_RestingPike"><path codeLine="136" d="M672.5,435.56 C672.5,448.7 672.5,461.95 672.5,474.7 " fill="none" id="Pike-backto-RestingPike" style="stroke:#181818;stroke-width:1.0;"/><polygon fill="none" points="665.5,435.1,672.5,415.1,679.5,435.1,665.5,435.1" style="stroke:#181818;stroke-width:1.0;"/></g><!--MD5=[1f33fc81b1519b70f51d3769c89af94e]
reverse link Perch to RestingPerch--><g id="link_Perch_RestingPerch"><path codeLine="137" d="M870.45,434.15 C865.92,447.75 861.33,461.5 856.93,474.7 " fill="none" id="Perch-backto-RestingPerch" style="stroke:#181818;stroke-width:1.0;"/><polygon fill="none" points="863.83,431.86,876.8,415.1,877.11,436.29,863.83,431.86" style="stroke:#181818;stroke-width:1.0;"/></g><!--MD5=[d6ec357f62907826f3f4d206d7d65dcc]
reverse link Pike to ChasingPike--><g id="link_Pike_ChasingPike"><path codeLine="138" d="M603.75,432.28 C594.81,446.48 585.74,460.89 577.06,474.7 " fill="none" id="Pike-backto-ChasingPike" style="stroke:#181818;stroke-width:1.0;"/><polygon fill="none" points="597.98,428.3,614.55,415.1,609.83,435.76,597.98,428.3" style="stroke:#181818;stroke-width:1.0;"/></g><!--MD5=[99fbb0f816696b75c77d35c2aba2227b]
reverse link Perch to EscapingPerch--><g id="link_Perch_EscapingPerch"><path codeLine="139" d="M946.87,434.15 C951.68,447.75 956.55,461.5 961.23,474.7 " fill="none" id="Perch-backto-EscapingPerch" style="stroke:#181818;stroke-width:1.0;"/><polygon fill="none" points="940.2,436.29,940.12,415.1,953.4,431.62,940.2,436.29" style="stroke:#181818;stroke-width:1.0;"/></g><!--MD5=[2ea2689dd80a2ef5a80ffd01b6e4e2d8]
reverse link Perch to ChasingPerch--><g id="link_Perch_ChasingPerch"><path codeLine="140" d="M991.37,395.27 C1019.27,420.02 1050.18,448.23 1077.5,475 C1083.32,480.7 1089.27,486.7 1095.17,492.79 " fill="none" id="Perch-backto-ChasingPerch" style="stroke:#181818;stroke-width:1.0;"/><polygon fill="none" points="986.58,400.38,976.22,381.9,995.85,389.89,986.58,400.38" style="stroke:#181818;stroke-width:1.0;"/></g><!--MD5=[00565532e5c91459aca3ac66c44bdba7]
link N_activity to Pike--><g id="link_N_activity_Pike"><path codeLine="149" d="M886.15,123.77 C868.24,151.9 842.7,192.67 821.5,229 C778.09,303.38 814.62,399 728.5,399 " fill="none" id="N_activity-Pike" style="stroke:#181818;stroke-width:1.0;stroke-dasharray:7.0,7.0;"/></g><!--MD5=[9494a2987482ec4988ae667cce9fb09b]
link N_activity to Perch--><g id="link_N_activity_Perch"><path codeLine="150" d="M929.76,123.66 C977.5,204.55 1080.71,399 969.5,399 " fill="none" id="N_activity-Perch" style="stroke:#181818;stroke-width:1.0;stroke-dasharray:7.0,7.0;"/></g><!--MD5=[846b710c3aaeaddd46fa778085d58a6c]
@startuml

skinparam backgroundColor #FFFFFF
abstract UserEvent {
	+frame
	
}
abstract Frame {
	width
	height
	update()
	handle_user_event()
}
class MainFrame {
	width
	height
	framerate

	update()
	handle_user_events()
}
class PlotFrame {
	widht
	height

	update()
	handle_user_events()
}
class InteractiveConsoleFrame {
	width
	height
	main_frame
	plot_frame

	update()
	handle_user_events()
	export_user_events()
}

Frame <|- - InteractiveConsoleFrame
Frame <|- - MainFrame
Frame <|- - PlotFrame

InteractiveConsoleFrame *- - MainFrame
InteractiveConsoleFrame *- - PlotFrame

interface Entity {
	id
	x, y
	vx, vy
	ax, ay
	satiety
	saturation
	move()
}
abstract Pike {
	id
	x, y
	vx, vy
	ax, ay
	satiety
	saturation
	move()
	activity() : Pike
}
abstract Perch {
	id
	x, y
	vx, vy
	ax, ay
	satiety
	saturation
	move()
	activity() : Perch
}
class RestingPike {
	id
	x, y
	vx, vy
	ax, ay
	satiety
	saturation
	move()
	activity() : Pike
}
class RestingPerch {
	id
	x, y
	vx, vy
	ax, ay
	satiety
	saturation
	move()
	activity() : Perch
}
class ChasingPike {
	id
	x, y
	vx, vy
	ax, ay
	satiety
	saturation
	move()
	activity() : Pike
}
class EscapingPerch {
	id
	x, y
	vx, vy
	ax, ay
	satiety
	saturation
	move()
	activity() : Perch
}
class ChasingPerch {
	id
	x, y
	vx, vy
	ax, ay
	satiety
	saturation
	move()
	activity() : Perch
}
class PerchFood {
	id
	x, y
	vx, vy
	ax, ay
	satiety
	saturation
}

Entity <|- - Pike
Entity <|- - Perch
Pike <|- - RestingPike
Perch <|- - RestingPerch
Pike <|- - ChasingPike
Perch <|- - EscapingPerch
Perch <|- - ChasingPerch

note as N_activity
Метод activity() возвращает либо self,
если состояние объекта не изменяется,
либо объект одного из подклассов, в
зависимости от результата деятельности.
end note

N_activity .. Pike::activity
N_activity .. Perch::activity
@enduml

PlantUML version 1.2022.5(Sat Apr 30 13:55:52 MSK 2022)
(GPL source distribution)
Java Runtime: OpenJDK Runtime Environment
JVM: OpenJDK 64-Bit Server VM
Default Encoding: UTF-8
Language: en
Country: US
--></g></svg>